<?xml version="1.0" standalone="no"?>
<!DOCTYPE svg PUBLIC "-//W3C//DTD SVG 20010904//EN"
 "http://www.w3.org/TR/2001/REC-SVG-20010904/DTD/svg10.dtd">
<svg version="1.0" xmlns="http://www.w3.org/2000/svg"
 width="290.000000pt" height="173.000000pt" viewBox="0 0 290.000000 173.000000"
 preserveAspectRatio="xMidYMid meet">
<metadata>
Created by potrace 1.16, written by Peter Selinger 2001-2019
</metadata>
<g transform="translate(0.000000,173.000000) scale(0.100000,-0.100000)"
fill="#000000" stroke="none">
<path d="M1387 1700 c-53 -9 -137 -47 -137 -61 0 -5 -7 -9 -15 -9 -8 0 -15 -5
-15 -12 0 -18 -92 -98 -115 -100 -17 -1 24 -7 132 -20 12 -2 25 -7 29 -11 5
-4 0 -5 -10 -1 -17 6 -16 3 5 -25 23 -32 24 -38 21 -194 -1 -89 -7 -178 -12
-197 -7 -28 -8 -23 -3 25 8 98 9 298 0 327 -4 15 -13 26 -20 24 -6 -1 -9 -1
-4 1 33 19 -41 53 -118 53 -46 0 -55 -3 -55 -18 0 -28 -20 -43 -41 -31 -19 10
-65 3 -74 -11 -3 -4 11 -4 29 0 29 6 38 4 55 -16 11 -13 16 -26 11 -29 -6 -4
-10 -15 -10 -25 0 -10 -6 -25 -13 -32 -7 -7 -19 -35 -27 -63 -7 -27 -19 -57
-27 -66 -7 -8 -13 -25 -13 -36 0 -12 -7 -34 -15 -50 -8 -15 -17 -45 -20 -66
-3 -21 -12 -40 -20 -43 -26 -11 19 -77 62 -92 36 -12 36 -12 6 -7 -18 3 -46 8
-63 11 -18 4 -30 2 -30 -4 0 -5 10 -8 23 -5 16 3 18 2 8 -5 -11 -8 -9 -11 8
-17 11 -3 30 -3 41 0 12 4 20 2 20 -5 0 -6 -4 -9 -8 -6 -5 3 -21 -2 -37 -10
-16 -8 -35 -12 -42 -10 -7 3 -13 2 -13 -3 0 -4 -25 -13 -56 -20 -30 -7 -53
-15 -51 -17 5 -6 185 39 242 60 22 8 33 15 25 15 -13 1 -13 2 0 11 20 13 39
12 20 -1 -27 -19 41 1 100 29 33 17 64 40 78 61 12 19 22 29 22 23 0 -6 -12
-25 -27 -43 -28 -33 -86 -62 -183 -94 -30 -10 -73 -25 -95 -35 -22 -10 -152
-46 -289 -81 -238 -60 -250 -64 -260 -90 -9 -25 -17 -29 -80 -39 -82 -13 -100
-18 -70 -19 12 -1 81 11 154 25 100 19 135 23 145 14 8 -7 19 -9 25 -5 14 9
60 -2 60 -14 0 -5 -19 -7 -42 -5 -40 3 -35 0 20 -12 19 -4 22 -11 22 -48 0
-26 5 -46 12 -48 9 -3 9 -6 0 -12 -7 -4 -12 -2 -12 3 0 6 -4 11 -9 11 -6 0
-11 -19 -13 -42 -3 -43 -3 -43 -42 -42 -24 1 -33 -2 -25 -7 10 -6 3 -9 -19 -9
-20 0 -31 -4 -27 -10 3 -6 -5 -10 -19 -10 -14 0 -28 -5 -32 -11 -3 -6 -15 -8
-27 -5 -11 3 -29 0 -39 -5 -26 -14 -176 -14 -211 0 -16 6 -34 17 -42 24 -22
22 -52 90 -68 151 -15 57 -34 94 -23 46 3 -14 10 -52 17 -85 13 -68 41 -125
71 -144 56 -35 192 -25 497 35 346 68 509 120 574 182 54 51 69 96 78 232 l7
125 -2 -125 c-2 -107 -6 -132 -26 -173 -48 -100 -143 -149 -411 -211 -207 -47
-403 -84 -489 -92 -39 -4 -73 -10 -75 -15 -3 -4 30 -11 74 -15 66 -5 80 -10
84 -25 4 -15 14 -19 45 -19 23 0 43 4 46 9 3 4 46 1 95 -8 94 -17 163 -54 198
-107 14 -23 22 -25 77 -22 56 3 62 5 84 38 13 19 33 68 45 108 l22 74 55 -7
c77 -9 128 -23 137 -38 19 -31 59 -47 114 -47 46 0 63 -5 86 -24 35 -29 88
-56 178 -89 185 -68 327 -95 550 -106 132 -6 168 -11 183 -24 10 -9 27 -17 38
-17 29 1 96 34 135 67 19 16 56 42 82 57 73 42 114 82 143 142 25 51 27 65 31
227 3 137 7 174 19 183 11 9 12 13 3 16 -8 3 -9 9 -3 21 9 15 16 9 52 -40 l42
-57 0 45 c0 46 -6 58 -72 145 -21 28 -38 58 -38 67 0 8 -11 29 -25 45 -28 33
-33 51 -10 32 29 -24 16 15 -15 45 l-30 28 2 -36 c1 -21 5 -37 10 -37 4 0 8
-5 8 -12 0 -19 -52 35 -67 71 -12 27 -18 32 -38 29 -15 -3 -22 -1 -18 5 4 7 0
8 -12 4 -9 -4 -23 -4 -29 1 -6 5 -33 17 -61 27 -52 19 -82 48 -77 77 2 9 -2
20 -9 24 -8 5 -10 3 -4 -7 5 -8 4 -11 0 -6 -11 9 -36 77 -37 97 -1 22 -30 51
-45 45 -8 -2 -12 -1 -9 4 8 13 -13 34 -105 104 -163 123 -326 205 -489 246
-95 24 -269 35 -343 21z m-30 -290 c7 0 10 -6 7 -15 -5 -11 -2 -13 9 -9 9 3
23 -3 34 -15 9 -12 22 -21 27 -21 5 0 16 -7 25 -15 32 -31 103 -85 111 -85 4
0 25 -16 46 -35 60 -53 63 -55 73 -55 5 0 11 -7 15 -15 3 -8 12 -15 20 -15 8
0 18 -5 22 -12 4 -7 3 -8 -4 -4 -7 4 -12 3 -12 -3 0 -5 8 -15 18 -20 9 -6 12
-11 5 -11 -6 0 -14 4 -18 9 -7 13 -48 10 -58 -4 -5 -5 -6 0 -2 11 4 14 1 22
-7 21 -33 -1 -49 4 -43 13 3 6 -1 10 -9 10 -9 0 -16 6 -16 14 0 7 -13 16 -29
19 -16 3 -36 13 -44 22 -9 8 -18 15 -21 15 -3 0 -29 18 -58 40 -29 22 -63 43
-75 46 -13 4 -23 10 -23 15 0 5 -9 18 -20 29 -11 11 -20 33 -20 49 0 16 -3 37
-7 47 -6 15 -3 14 17 -4 13 -12 30 -22 37 -22z m766 -388 c56 -75 113 -189
145 -287 30 -91 60 -270 48 -282 -11 -11 -121 -16 -181 -8 l-56 7 16 25 c51
77 76 235 55 338 -15 73 -60 161 -105 206 -19 19 -35 37 -35 42 0 4 18 7 39 7
35 0 43 -5 74 -48z m452 -201 c-3 -2 7 -17 21 -32 26 -27 26 -28 10 -76 -8
-26 -19 -74 -22 -106 -6 -50 -11 -62 -39 -83 -17 -13 -36 -24 -42 -24 -5 0
-17 39 -27 86 -13 70 -59 225 -82 282 -4 8 4 12 23 12 15 1 39 7 53 15 24 13
27 11 67 -28 24 -22 40 -43 38 -46z"/>
</g>
</svg>
